<?xml version="1.0" standalone="no"?>
<!DOCTYPE svg PUBLIC "-//W3C//DTD SVG 20010904//EN"
 "http://www.w3.org/TR/2001/REC-SVG-20010904/DTD/svg10.dtd">
<svg version="1.0" xmlns="http://www.w3.org/2000/svg"
 width="278.000000pt" height="278.000000pt" viewBox="0 0 278.000000 278.000000"
 preserveAspectRatio="xMidYMid meet">
<metadata>
Created by potrace 1.14, written by Peter Selinger 2001-2017
</metadata>
<g transform="translate(0.000000,278.000000) scale(0.100000,-0.100000)"
fill="#000000" stroke="none">
<path d="M777 2334 c-1 -1 -45 -4 -97 -8 -123 -8 -133 -10 -222 -35 -257 -70
-442 -233 -454 -399 -5 -85 29 -190 94 -285 l19 -29 12 34 12 33 29 -35 c27
-32 29 -33 30 -12 0 49 111 264 127 248 15 -14 -36 -193 -153 -543 -113 -335
-121 -416 -46 -489 54 -53 166 -106 174 -83 2 7 14 6 32 -1 16 -6 30 -9 31 -8
1 2 40 118 87 258 79 238 87 257 118 277 100 68 222 -16 223 -155 1 -81 -47
-177 -128 -257 -123 -121 -327 -188 -447 -146 -18 7 -28 6 -30 -1 -3 -8 -13
-8 -35 -1 -28 10 -32 9 -37 -10 -26 -97 16 -197 99 -237 43 -21 56 -22 158
-17 62 3 123 8 137 11 26 6 82 19 90 21 3 1 19 5 35 10 66 18 179 81 235 133
223 201 310 541 183 711 -28 37 -36 45 -86 73 l-29 17 89 42 c113 55 192 132
250 244 53 103 75 180 74 262 -2 230 -151 350 -466 371 -59 4 -107 7 -108 6z
m138 -269 c89 -25 126 -117 80 -204 -43 -85 -200 -230 -323 -298 l-37 -21 2
68 c3 123 -54 199 -177 234 -30 9 -56 12 -58 8 -3 -11 -50 -3 -57 9 -9 14 104
96 190 138 103 51 235 89 289 84 22 -2 64 -11 91 -18z"/>
<path d="M2277 2335 c-1 -1 -63 -5 -137 -8 -265 -11 -467 -91 -608 -239 -122
-128 -128 -289 -15 -459 30 -45 38 -48 47 -16 6 22 6 22 25 -7 l19 -28 12 38
c68 216 204 344 458 435 180 64 347 24 368 -88 18 -97 -122 -268 -317 -384
-36 -21 -67 -39 -70 -39 -2 0 -4 37 -4 83 0 86 -15 123 -69 170 -43 37 -166
79 -166 56 0 -6 -7 -6 -20 1 -25 13 -40 5 -40 -21 0 -37 -59 -244 -125 -439
-111 -327 -113 -336 -122 -421 -7 -71 8 -118 50 -159 41 -40 159 -99 164 -83
3 9 12 9 30 2 14 -5 27 -8 28 -7 1 2 40 118 87 258 79 238 87 257 118 278 37
25 109 30 150 9 13 -7 38 -31 54 -54 66 -95 27 -245 -96 -367 -125 -124 -341
-192 -461 -147 -17 7 -27 7 -29 0 -2 -7 -12 -7 -30 0 -26 10 -27 9 -33 -34
-12 -79 2 -125 55 -177 57 -55 95 -64 224 -55 120 9 218 31 302 68 282 125
471 491 384 744 -22 65 -75 129 -124 150 l-29 13 84 41 c101 49 167 104 217
180 107 159 139 316 92 455 -46 138 -171 214 -403 244 -37 5 -68 8 -70 7z"/>
</g>
</svg>
